<svg width="48" height="51" viewBox="0 0 48 51" fill="none" xmlns="http://www.w3.org/2000/svg">
<g clip-path="url(#clip0_422_27)">
<path d="M47.5202 47.7296C47.5202 49.4896 46.0502 50.9096 44.2402 50.9096H5.7302C3.9202 50.9096 2.4502 49.4896 2.4502 47.7296V10.0696C2.4502 8.30965 3.9202 6.88965 5.7302 6.88965H44.2402C46.0502 6.88965 47.5202 8.30965 47.5202 10.0696V47.7296Z" fill="#93A2AA"/>
<path d="M45.07 10.0696C45.07 8.30965 43.6 6.88965 41.79 6.88965H3.28C1.47 6.88965 0 8.30965 0 10.0696V28.1096H45.07V10.0696Z" fill="#ED4C5C"/>
<path d="M0 28.1104V47.7304C0 49.4904 1.47 50.9104 3.28 50.9104H41.79C43.6 50.9104 45.07 49.4904 45.07 47.7304V28.1104H0Z" fill="#D9E3E8"/>
<path d="M7.70023 15.1198C9.05886 15.1198 10.1602 14.0498 10.1602 12.7298C10.1602 11.4099 9.05886 10.3398 7.70023 10.3398C6.34161 10.3398 5.24023 11.4099 5.24023 12.7298C5.24023 14.0498 6.34161 15.1198 7.70023 15.1198Z" fill="#3E4347"/>
<path d="M17.6299 15.1198C18.9885 15.1198 20.0899 14.0498 20.0899 12.7298C20.0899 11.4099 18.9885 10.3398 17.6299 10.3398C16.2713 10.3398 15.1699 11.4099 15.1699 12.7298C15.1699 14.0498 16.2713 15.1198 17.6299 15.1198Z" fill="#3E4347"/>
<path d="M27.44 15.1198C28.7986 15.1198 29.9 14.0498 29.9 12.7298C29.9 11.4099 28.7986 10.3398 27.44 10.3398C26.0814 10.3398 24.98 11.4099 24.98 12.7298C24.98 14.0498 26.0814 15.1198 27.44 15.1198Z" fill="#3E4347"/>
<path d="M37.25 15.1198C38.6087 15.1198 39.71 14.0498 39.71 12.7298C39.71 11.4099 38.6087 10.3398 37.25 10.3398C35.8914 10.3398 34.79 11.4099 34.79 12.7298C34.79 14.0498 35.8914 15.1198 37.25 15.1198Z" fill="#3E4347"/>
<path d="M27.9498 1.88003C27.9498 1.88003 27.9698 1.88003 27.9898 1.88003C27.9698 1.88003 27.9598 1.88003 27.9498 1.88003ZM31.0298 2.21003C30.4998 1.17003 29.6098 0.0500294 27.9998 2.94338e-05C26.4498 -0.0499706 26.4298 1.78003 27.9298 1.88003C27.9298 1.88003 27.9298 1.88003 27.9398 1.88003C27.8998 1.88003 28.2898 2.14003 28.1698 2.02003C28.5298 2.38003 28.7098 2.76003 28.8898 3.17003C29.3998 4.36003 29.5498 5.64003 29.5598 6.89003H32.0098C31.9998 5.32003 31.7898 3.68003 31.0398 2.21003H31.0298Z" fill="#3E4347"/>
<path d="M18.1398 1.88003C18.1398 1.88003 18.1598 1.88003 18.1798 1.88003C18.1598 1.88003 18.1498 1.88003 18.1398 1.88003ZM21.2198 2.21003C20.6898 1.17003 19.7998 0.0500294 18.1898 2.94338e-05C16.6298 -0.0499706 16.6098 1.78003 18.1098 1.88003C18.0698 1.88003 18.4598 2.14003 18.3398 2.02003C18.6998 2.38003 18.8898 2.76003 19.0598 3.17003C19.5698 4.36003 19.7198 5.64003 19.7198 6.89003H22.1798C22.1698 5.32003 21.9598 3.68003 21.2098 2.21003H21.2198Z" fill="#3E4347"/>
<path d="M8.32992 1.88003C8.32992 1.88003 8.34992 1.88003 8.36992 1.88003C8.34992 1.88003 8.33992 1.88003 8.32992 1.88003ZM11.4099 2.21003C10.8799 1.17003 9.97992 0.0500294 8.36992 2.94338e-05C6.81992 -0.0499706 6.79992 1.78003 8.29992 1.88003C8.29992 1.88003 8.29992 1.88003 8.30992 1.88003C8.26992 1.88003 8.65992 2.14003 8.53992 2.02003C8.89992 2.38003 9.08992 2.76003 9.25992 3.17003C9.76992 4.36003 9.90992 5.64003 9.91992 6.89003H12.3699C12.3599 5.32003 12.1499 3.68003 11.3999 2.21003H11.4099Z" fill="#3E4347"/>
<path d="M37.7701 1.88003C37.7701 1.88003 37.7901 1.88003 37.8101 1.88003C37.7901 1.88003 37.7801 1.88003 37.7701 1.88003ZM40.8501 2.21003C40.3201 1.17003 39.4201 0.0500294 37.8101 2.94338e-05C36.2501 -0.0499706 36.2401 1.78003 37.7401 1.88003C37.7001 1.88003 38.0901 2.14003 37.9701 2.02003C38.3301 2.38003 38.5201 2.76003 38.6901 3.17003C39.2001 4.36003 39.3501 5.64003 39.3501 6.89003H41.8001C41.7901 5.32003 41.5801 3.68003 40.8301 2.21003H40.8501Z" fill="#3E4347"/>
<path d="M27.4398 11.89C27.7198 11.94 27.1598 11.89 27.4398 11.89C27.7298 11.95 27.5098 11.91 27.4198 11.87C27.7298 12.01 27.1298 11.61 27.2798 11.76C26.9198 11.39 26.7398 11.03 26.5598 10.61C26.0498 9.42 25.8998 8.14 25.8998 6.89C25.8998 5.63 26.0798 4.38 26.5598 3.17C26.7198 2.77 26.9098 2.46 27.2098 2.1C27.2498 2.05 27.3198 1.99 27.5198 1.85C27.2998 1.99 27.5198 1.87 27.5798 1.85C27.4198 1.9 27.3998 1.91 27.5198 1.88C27.3298 1.89 27.2998 1.9 27.4398 1.89C29.0198 1.84 29.0198 -0.0500018 27.4398 -1.82213e-06C25.8098 0.0499982 24.9598 1.17 24.4098 2.21C23.6298 3.66 23.4498 5.34 23.4398 6.89C23.4298 8.45 23.6598 10.11 24.4098 11.57C24.9398 12.61 25.8298 13.73 27.4398 13.78C29.0198 13.83 29.0198 11.94 27.4398 11.89Z" fill="#94989B"/>
<path d="M17.6302 11.89C17.9102 11.94 17.3402 11.89 17.6302 11.89C17.9202 11.95 17.7002 11.91 17.6102 11.87C17.9102 12.01 17.3202 11.61 17.4702 11.76C17.1102 11.39 16.9202 11.03 16.7502 10.61C16.2402 9.42 16.0902 8.14 16.0902 6.89C16.0902 5.63 16.2602 4.38 16.7502 3.17C16.9102 2.77 17.0902 2.46 17.4002 2.1C17.4402 2.05 17.5102 1.99 17.7102 1.85C17.4902 1.99 17.7102 1.87 17.7702 1.85C17.6102 1.9 17.5902 1.91 17.7102 1.88C17.5202 1.89 17.4902 1.9 17.6302 1.89C19.2102 1.84 19.2102 -0.0500018 17.6302 -1.82213e-06C16.0002 0.0499982 15.1502 1.17 14.6002 2.21C13.8202 3.66 13.6402 5.34 13.6302 6.89C13.6202 8.45 13.8602 10.11 14.6002 11.57C15.1302 12.61 16.0202 13.73 17.6302 13.78C19.2102 13.83 19.2102 11.94 17.6302 11.89Z" fill="#94989B"/>
<path d="M7.82012 11.89C8.10012 11.94 7.54012 11.89 7.82012 11.89C8.11012 11.95 7.89012 11.91 7.80012 11.87C8.10012 12.01 7.51012 11.61 7.66012 11.76C7.30012 11.39 7.12012 11.03 6.94012 10.61C6.43012 9.42 6.28012 8.14 6.28012 6.89C6.28012 5.63 6.46012 4.38 6.94012 3.17C7.10012 2.77 7.29012 2.46 7.60012 2.1C7.64012 2.05 7.71012 1.99 7.91012 1.85C7.69012 1.99 7.91012 1.87 7.97012 1.85C7.81012 1.9 7.79012 1.91 7.92012 1.88C7.73012 1.89 7.70012 1.9 7.84012 1.89C9.39012 1.84 9.40012 -0.0500018 7.82012 -1.82213e-06C6.19012 0.0499982 5.34012 1.17 4.79012 2.21C4.02012 3.66 3.83012 5.34 3.82012 6.89C3.81012 8.45 4.05012 10.11 4.79012 11.57C5.32012 12.61 6.21012 13.73 7.82012 13.78C9.40012 13.83 9.40012 11.94 7.82012 11.89Z" fill="#94989B"/>
<path d="M37.2498 11.89C37.5298 11.94 36.9698 11.89 37.2498 11.89C37.5398 11.95 37.3198 11.91 37.2298 11.87C37.5298 12.01 36.9398 11.61 37.0898 11.76C36.7298 11.39 36.5398 11.03 36.3698 10.61C35.8598 9.42 35.7098 8.14 35.6998 6.89C35.6998 5.63 35.8798 4.38 36.3698 3.17C36.5298 2.77 36.7098 2.46 37.0198 2.1C37.0598 2.05 37.1298 1.99 37.3298 1.85C37.1098 1.99 37.3298 1.87 37.3898 1.85C37.2298 1.9 37.2098 1.91 37.3298 1.88C37.1398 1.89 37.1098 1.9 37.2498 1.89C38.8298 1.84 38.8298 -0.0500018 37.2498 -1.82213e-06C35.6198 0.0499982 34.7698 1.17 34.2198 2.21C33.4498 3.66 33.2598 5.34 33.2498 6.89C33.2398 8.45 33.4698 10.11 34.2198 11.57C34.7498 12.61 35.6398 13.73 37.2498 13.78C38.8298 13.83 38.8298 11.94 37.2498 11.89Z" fill="#94989B"/>
<path d="M25.0298 6.89029C25.0398 5.58029 25.2098 4.26029 25.7198 3.00029C25.9498 2.44029 26.4698 1.26029 27.4298 1.23029C27.8998 1.22029 27.9098 0.650286 27.4298 0.660286C26.2498 0.700286 25.6198 1.65029 25.2198 2.39029C24.4698 3.79029 24.2898 5.40029 24.2798 6.89029C24.2798 7.26029 25.0098 7.26029 25.0198 6.89029H25.0298Z" fill="#D0D0D0"/>
<path d="M15.22 6.89029C15.22 5.58029 15.4 4.26029 15.92 3.00029C16.15 2.44029 16.67 1.26029 17.63 1.23029C18.1 1.22029 18.11 0.650286 17.63 0.660286C16.45 0.700286 15.82 1.65029 15.42 2.39029C14.67 3.79029 14.5 5.40029 14.48 6.89029C14.48 7.26029 15.21 7.26029 15.22 6.89029Z" fill="#D0D0D0"/>
<path d="M5.41016 6.89029C5.41016 5.58029 5.59016 4.26029 6.10016 3.00029C6.33016 2.44029 6.85016 1.26029 7.81016 1.23029C8.28016 1.22029 8.29016 0.650286 7.81016 0.660286C6.63016 0.700286 6.00016 1.65029 5.60016 2.39029C4.85016 3.79029 4.68016 5.40029 4.66016 6.89029C4.66016 7.26029 5.39016 7.26029 5.40016 6.89029H5.41016Z" fill="#D0D0D0"/>
<path d="M34.8399 6.89029C34.8499 5.58029 35.0199 4.26029 35.5399 3.00029C35.7699 2.44029 36.2899 1.26029 37.2499 1.23029C37.7199 1.22029 37.7299 0.650286 37.2499 0.660286C36.0699 0.700286 35.4399 1.65029 35.0499 2.39029C34.2999 3.79029 34.1199 5.40029 34.1099 6.89029C34.1099 7.26029 34.8399 7.26029 34.8399 6.89029Z" fill="#D0D0D0"/>
<path d="M12.8298 22.4295V22.6295C12.8498 23.2995 12.9198 23.7795 13.0398 24.0495C13.1698 24.3195 13.4398 24.4595 13.8598 24.4595C14.2798 24.4595 14.5498 24.3095 14.6798 24.0095C14.7598 23.8295 14.7998 23.5295 14.7998 23.1095V17.0195H16.6698V23.0795C16.6698 23.8195 16.5398 24.4095 16.2798 24.8395C15.8398 25.5695 15.0598 25.9395 13.9198 25.9395C12.7798 25.9395 12.0198 25.6395 11.6298 25.0495C11.2398 24.4595 11.0498 23.6495 11.0498 22.6295V22.4295H12.8198H12.8298Z" fill="white"/>
<path d="M18.6602 17.0303H20.5602V22.3703C20.5602 22.9703 20.6302 23.4103 20.7802 23.6803C21.0102 24.1703 21.5002 24.4103 22.2602 24.4103C23.0202 24.4103 23.5102 24.1703 23.7302 23.6803C23.8802 23.4103 23.9502 22.9703 23.9502 22.3703V17.0303H25.8502V22.3803C25.8502 23.3103 25.7002 24.0303 25.4102 24.5403C24.8602 25.4803 23.8102 25.9603 22.2602 25.9603C20.7102 25.9603 19.6602 25.4903 19.1002 24.5403C18.8002 24.0203 18.6602 23.3003 18.6602 22.3803V17.0303Z" fill="white"/>
<path d="M27.6602 17.0303H29.5302V24.1703H34.0102V25.7303H27.6602V17.0303Z" fill="white"/>
<path d="M10.2402 36.0599V33.7199C11.3002 33.6699 12.0502 33.5999 12.4702 33.4999C13.1502 33.3499 13.7002 33.0399 14.1202 32.5799C14.4102 32.2699 14.6302 31.8499 14.7802 31.3299C14.8702 31.0199 14.9102 30.7799 14.9102 30.6299H17.7302V48.1299H14.2802V36.0599H10.2402Z" fill="#333333"/>
<path d="M34.8202 33.5504C34.3202 34.0604 33.6102 34.9603 32.7102 36.2603C31.8102 37.5603 31.0502 38.9004 30.4502 40.2904C29.9702 41.3804 29.5302 42.7104 29.1402 44.2704C28.7502 45.8404 28.5602 47.1304 28.5602 48.1304H25.0602C25.1602 44.9904 26.1702 41.7304 28.0902 38.3404C29.3302 36.2404 30.3702 34.7804 31.2102 33.9504H22.6602L22.7102 30.8604H34.8302V33.5504H34.8202Z" fill="#333333"/>
</g>
<defs>
<clipPath id="clip0_422_27">
<rect width="47.52" height="50.92" fill="white"/>
</clipPath>
</defs>
</svg>
