<svg width="54" height="58" viewBox="0 0 54 58" fill="none" xmlns="http://www.w3.org/2000/svg">
<g clip-path="url(#clip0_463_203)">
<path d="M53.21 53.4397C53.21 55.4097 51.57 56.9997 49.54 56.9997H6.42C4.39 56.9997 2.75 55.3997 2.75 53.4397V11.2797C2.75 9.30973 4.39 7.71973 6.42 7.71973H49.54C51.57 7.71973 53.21 9.31973 53.21 11.2797V53.4497V53.4397Z" fill="#93A2AA"/>
<path d="M50.46 11.2797C50.46 9.30973 48.81 7.71973 46.79 7.71973H3.67C1.64 7.71973 0 9.30973 0 11.2797V31.4797H50.46V11.2797Z" fill="#ED4C5C"/>
<path d="M0 31.4697V53.4397C0 55.4097 1.64 56.9997 3.67 56.9997H46.79C48.82 56.9997 50.46 55.3997 50.46 53.4397V31.4697H0Z" fill="#D9E3E8"/>
<path d="M8.62012 11.5801C10.1401 11.5801 11.3701 12.7801 11.3701 14.2501C11.3701 15.7201 10.1401 16.9201 8.62012 16.9201C7.10012 16.9201 5.87012 15.7201 5.87012 14.2501C5.87012 12.7801 7.10012 11.5801 8.62012 11.5801Z" fill="#3E4347"/>
<path d="M19.7402 11.5801C21.2602 11.5801 22.4902 12.7801 22.4902 14.2501C22.4902 15.7201 21.2602 16.9201 19.7402 16.9201C18.2202 16.9201 16.9902 15.7201 16.9902 14.2501C16.9902 12.7801 18.2202 11.5801 19.7402 11.5801Z" fill="#3E4347"/>
<path d="M30.7202 11.5801C32.2402 11.5801 33.4702 12.7801 33.4702 14.2501C33.4702 15.7201 32.2402 16.9201 30.7202 16.9201C29.2002 16.9201 27.9702 15.7201 27.9702 14.2501C27.9702 12.7801 29.2002 11.5801 30.7202 11.5801Z" fill="#3E4347"/>
<path d="M41.71 16.9201C43.2287 16.9201 44.46 15.7247 44.46 14.2501C44.46 12.7755 43.2287 11.5801 41.71 11.5801C40.1912 11.5801 38.96 12.7755 38.96 14.2501C38.96 15.7247 40.1912 16.9201 41.71 16.9201Z" fill="#3E4347"/>
<path d="M31.2999 2.11031C31.2999 2.11031 31.3299 2.11031 31.3499 2.12031C31.3299 2.12031 31.3099 2.12031 31.2999 2.11031ZM34.7499 2.47031C34.1499 1.31032 33.1499 0.0603149 31.3399 0.000314914C29.5999 -0.0596851 29.5799 1.99031 31.2599 2.11031C31.2599 2.11031 31.2599 2.11031 31.2699 2.11031C31.2199 2.11031 31.6599 2.40031 31.5199 2.27031C31.9199 2.68031 32.1299 3.09031 32.3299 3.56031C32.8999 4.90031 33.0599 6.32031 33.0799 7.72031H35.8199C35.8099 5.97031 35.5699 4.13031 34.7399 2.48031L34.7499 2.47031Z" fill="#3E4347"/>
<path d="M20.3102 2.11031C20.3102 2.11031 20.3302 2.11031 20.3502 2.12031C20.3302 2.12031 20.3202 2.12031 20.3002 2.11031H20.3102ZM23.7602 2.47031C23.1702 1.31032 22.1702 0.0603149 20.3602 0.000314914C18.6202 -0.0596851 18.6002 1.99031 20.2702 2.11031C20.2702 2.11031 20.2702 2.11031 20.2802 2.11031C20.2302 2.11031 20.6702 2.40031 20.5302 2.27031C20.9302 2.68031 21.1402 3.09031 21.3402 3.56031C21.9102 4.90031 22.0702 6.32031 22.0802 7.72031H24.8302C24.8202 5.97031 24.5802 4.13031 23.7502 2.48031L23.7602 2.47031Z" fill="#3E4347"/>
<path d="M9.33014 2.11031C9.33014 2.11031 9.36014 2.11031 9.37014 2.12031C9.35014 2.12031 9.34014 2.12031 9.32014 2.11031H9.33014ZM12.7801 2.47031C12.1801 1.31032 11.1801 0.0603149 9.37014 0.000314914C7.63014 -0.0596851 7.61014 1.99031 9.29014 2.11031C9.29014 2.11031 9.29014 2.11031 9.30014 2.11031C9.25014 2.11031 9.69014 2.40031 9.55014 2.27031C9.95014 2.68031 10.1601 3.09031 10.3601 3.56031C10.9301 4.90031 11.0901 6.32031 11.1001 7.72031H13.8501C13.8401 5.97031 13.6001 4.13031 12.7701 2.48031L12.7801 2.47031Z" fill="#3E4347"/>
<path d="M42.2801 2.11031C42.2801 2.11031 42.3001 2.11031 42.3301 2.12031C42.3101 2.12031 42.2901 2.12031 42.2801 2.11031ZM45.7301 2.47031C45.1401 1.31032 44.1301 0.0603149 42.3301 0.000314914C40.5901 -0.0596851 40.5701 1.99031 42.2501 2.11031C42.2001 2.11031 42.6401 2.40031 42.5101 2.27031C42.9101 2.68031 43.1201 3.09031 43.3201 3.56031C43.8901 4.90031 44.0501 6.32031 44.0601 7.72031H46.8101C46.8001 5.97031 46.5601 4.13031 45.7301 2.48031V2.47031Z" fill="#3E4347"/>
<path d="M30.72 13.3196C31.03 13.3796 30.4 13.3196 30.72 13.3196C31.04 13.3896 30.8 13.3396 30.7 13.2996C31.04 13.4596 30.38 13.0096 30.54 13.1796C30.14 12.7696 29.93 12.3596 29.73 11.8896C29.16 10.5496 29 9.12958 28.99 7.72958C28.99 6.31958 29.19 4.90958 29.73 3.56958C29.91 3.12958 30.12 2.76958 30.46 2.36958C30.51 2.31958 30.58 2.24958 30.81 2.09958C30.57 2.25958 30.81 2.11958 30.87 2.09958C30.69 2.15958 30.67 2.16958 30.81 2.12958C30.59 2.14958 30.56 2.14958 30.72 2.13958C32.49 2.07958 32.49 -0.0304241 30.72 0.0295759C28.89 0.0895759 27.94 1.33958 27.32 2.49958C26.45 4.11958 26.25 5.99958 26.24 7.73958C26.23 9.48958 26.49 11.3396 27.32 12.9796C27.91 14.1396 28.91 15.3996 30.72 15.4596C32.49 15.5096 32.49 13.3996 30.72 13.3496V13.3196Z" fill="#94989B"/>
<path d="M19.7398 13.3196C20.0498 13.3796 19.4198 13.3196 19.7398 13.3196C20.0598 13.3896 19.8198 13.3396 19.7198 13.2996C20.0598 13.4596 19.3898 13.0096 19.5598 13.1796C19.1598 12.7696 18.9498 12.3596 18.7498 11.8896C18.1698 10.5496 18.0098 9.12958 18.0098 7.72958C18.0098 6.31958 18.1998 4.90958 18.7498 3.56958C18.9298 3.12958 19.1398 2.76958 19.4798 2.36958C19.5298 2.31958 19.5998 2.24958 19.8298 2.09958C19.5898 2.25958 19.8298 2.11958 19.8998 2.09958C19.7198 2.15958 19.6998 2.16958 19.8398 2.12958C19.6298 2.14958 19.5898 2.14958 19.7498 2.13958C21.5198 2.07958 21.5198 -0.0304241 19.7498 0.0295759C17.9198 0.0895759 16.9698 1.33958 16.3498 2.49958C15.4798 4.11958 15.2798 5.99958 15.2698 7.73958C15.2598 9.48958 15.5198 11.3396 16.3498 12.9796C16.9398 14.1396 17.9398 15.3996 19.7498 15.4596C21.5198 15.5096 21.5198 13.3996 19.7498 13.3496L19.7398 13.3196Z" fill="#94989B"/>
<path d="M8.74981 13.3199C9.05981 13.3799 8.42981 13.3199 8.74981 13.3199C9.06981 13.3899 8.82981 13.3399 8.72981 13.2999C9.06981 13.4599 8.40981 13.0099 8.56981 13.1799C8.16981 12.7699 7.95981 12.3599 7.75981 11.8899C7.18981 10.5499 7.02981 9.1299 7.01981 7.7299C7.00981 6.3199 7.21981 4.9099 7.75981 3.5699C7.93981 3.1299 8.14981 2.7699 8.48981 2.3699C8.53981 2.3199 8.60981 2.2499 8.82981 2.0999C8.58981 2.2599 8.82981 2.1199 8.89981 2.0999C8.71981 2.1599 8.69981 2.1699 8.83981 2.1299C8.62981 2.1499 8.58981 2.1499 8.73981 2.1399C10.5198 2.0599 10.5198 -0.0501019 8.74981 -0.000101899C6.91981 0.0598981 5.96981 1.3099 5.34981 2.4699C4.47981 4.0899 4.27981 5.9699 4.26981 7.7099C4.25981 9.4599 4.51981 11.3099 5.34981 12.9499C5.93981 14.1099 6.93981 15.3699 8.74981 15.4299C10.5198 15.4799 10.5098 13.3699 8.74981 13.3199Z" fill="#94989B"/>
<path d="M41.7098 13.3196C42.0198 13.3796 41.3898 13.3196 41.7098 13.3196C42.0298 13.3896 41.7898 13.3396 41.6898 13.2996C42.0298 13.4596 41.3598 13.0096 41.5298 13.1796C41.1298 12.7696 40.9198 12.3596 40.7198 11.8896C40.1498 10.5496 39.9798 9.12958 39.9698 7.72958C39.9698 6.31958 40.1698 4.90958 40.7198 3.56958C40.8998 3.12958 41.0998 2.76958 41.4498 2.36958C41.4998 2.31958 41.5698 2.24958 41.7898 2.09958C41.5498 2.25958 41.7898 2.11958 41.8598 2.09958C41.6798 2.15958 41.6498 2.16958 41.7998 2.12958C41.5898 2.14958 41.5498 2.14958 41.7098 2.13958C43.4798 2.07958 43.4798 -0.0304241 41.7098 0.0295759C39.8798 0.0895759 38.9298 1.33958 38.3098 2.49958C37.4398 4.11958 37.2398 5.99958 37.2298 7.73958C37.2198 9.48958 37.4798 11.3396 38.3098 12.9796C38.8998 14.1396 39.8998 15.3996 41.7098 15.4596C43.4798 15.5096 43.4798 13.3996 41.7098 13.3496V13.3196Z" fill="#94989B"/>
<path d="M28.03 7.70972C28.04 6.23972 28.23 4.75972 28.81 3.34972C29.07 2.71972 29.65 1.39972 30.73 1.36972C31.26 1.34972 31.26 0.719724 30.73 0.739724C29.4 0.779724 28.7 1.84972 28.26 2.66972C27.42 4.23972 27.22 6.03972 27.21 7.70972C27.21 8.11972 28.03 8.11972 28.03 7.70972Z" fill="#D0D0D0"/>
<path d="M17.0402 7.70972C17.0402 6.23972 17.2402 4.75972 17.8202 3.34972C18.0802 2.71972 18.6602 1.39972 19.7402 1.36972C20.2702 1.34972 20.2702 0.719724 19.7402 0.739724C18.4102 0.779724 17.7102 1.84972 17.2702 2.66972C16.4302 4.23972 16.2302 6.03972 16.2202 7.70972C16.2202 8.11972 17.0402 8.11972 17.0402 7.70972Z" fill="#D0D0D0"/>
<path d="M6.06023 7.70972C6.06023 6.23972 6.26023 4.75972 6.84023 3.34972C7.10023 2.71972 7.68023 1.39972 8.76023 1.36972C9.29023 1.34972 9.29023 0.719724 8.76023 0.739724C7.43023 0.779724 6.73023 1.84972 6.29023 2.66972C5.45023 4.23972 5.25023 6.03972 5.24023 7.70972C5.24023 8.11972 6.06023 8.11972 6.06023 7.70972Z" fill="#D0D0D0"/>
<path d="M39.0099 7.70972C39.0199 6.23972 39.2199 4.75972 39.7899 3.34972C40.0499 2.71972 40.6299 1.39972 41.7099 1.36972C42.2399 1.34972 42.2399 0.719724 41.7099 0.739724C40.3899 0.779724 39.6799 1.84972 39.2399 2.66972C38.3999 4.23972 38.1999 6.03972 38.1899 7.70972C38.1899 8.11972 39.0099 8.11972 39.0099 7.70972Z" fill="#D0D0D0"/>
</g>
<defs>
<clipPath id="clip0_463_203">
<rect width="53.21" height="57.01" fill="white"/>
</clipPath>
</defs>
</svg>
