<svg width="47" height="121" viewBox="0 0 47 121" fill="none" xmlns="http://www.w3.org/2000/svg">
<g clip-path="url(#clip0_463_204)">
<path d="M10.8599 37.9201H8.80992V38.6301C8.80992 47.7501 8.80992 56.8701 8.80992 65.9901C8.80992 67.8901 8.05992 69.4001 6.22992 70.1601C3.54992 71.2701 0.0599171 69.8601 0.0499171 66.1401C0.00991707 55.8101 -0.0500829 45.4901 0.0699171 35.1601C0.129917 29.7201 2.76992 25.7101 7.71992 23.3301C9.34992 22.5501 11.1099 22.2401 12.9099 22.2401C20.0399 22.2401 27.1699 22.2301 34.2999 22.2801C40.3099 22.3201 45.1499 26.5201 46.5599 32.1601C46.8599 33.3501 46.9799 34.6101 46.9799 35.8401C47.0099 45.7801 46.9999 55.7101 46.9899 65.6501C46.9899 66.1701 46.9899 66.7001 46.8799 67.2001C46.3899 69.4201 44.6099 70.6801 42.2399 70.5401C40.1599 70.4101 38.5599 68.8201 38.3499 66.6501C38.3099 66.2301 38.2899 65.8001 38.2899 65.3701C38.2899 56.4601 38.2899 47.5401 38.2899 38.6301C38.2899 38.4101 38.2899 38.1901 38.2899 37.9401H36.2799V38.6701C36.2799 63.9601 36.2799 89.2601 36.2799 114.55C36.2799 115.85 36.1299 117.1 35.4399 118.24C34.2199 120.25 31.7099 121.28 29.2499 120.77C26.7199 120.25 24.9899 118.48 24.6599 116.04C24.5899 115.55 24.5599 115.04 24.5599 114.54C24.5599 100.02 24.5599 85.4901 24.5599 70.9701V70.2601H22.5499C22.5499 70.4901 22.5499 70.7201 22.5499 70.9601C22.5499 85.5401 22.5499 100.12 22.5499 114.7C22.5499 116.46 22.1399 118.07 20.7999 119.28C19.0599 120.85 17.0199 121.26 14.7899 120.59C12.6799 119.95 11.4399 118.48 11.0199 116.34C10.8999 115.73 10.8699 115.09 10.8699 114.46C10.8699 89.2001 10.8699 63.9401 10.8699 38.6901V37.9301L10.8599 37.9201Z" fill="white"/>
<path d="M23.5698 20.0304C18.0998 19.9704 13.5698 15.7204 13.5698 10.0004C13.5698 4.10045 18.3798 -0.0495531 23.6298 0.000446947C29.1898 0.0504469 33.6298 4.52045 33.5998 10.0404C33.5598 15.5904 29.0798 20.0604 23.5698 20.0404V20.0304Z" fill="white"/>
</g>
<defs>
<clipPath id="clip0_463_204">
<rect width="47" height="120.9" fill="white"/>
</clipPath>
</defs>
</svg>
