<svg width="288" height="80" viewBox="0 0 288 80" fill="none" xmlns="http://www.w3.org/2000/svg">
<path d="M143.78 79.1804C106.09 79.1804 68.4102 79.1804 30.7202 79.1804C28.2702 79.1804 25.8302 79.0704 23.4402 78.5404C21.1302 78.0304 18.9102 77.2104 16.7702 76.1704C13.9602 74.8104 11.4302 73.0504 9.19019 70.9204C6.84019 68.6804 4.92019 66.1004 3.41019 63.2104C2.13019 60.7604 1.18019 58.1804 0.590189 55.4904C0.370189 54.4604 0.210189 53.4104 0.170189 52.3404C-0.129811 44.3004 0.0701889 36.2604 0.0701889 28.2204C0.0701889 25.7704 0.500189 23.3504 1.31019 21.0004C1.91019 19.2604 2.49019 17.5104 3.42019 15.9304C4.36019 14.3304 5.22019 12.6704 6.55019 11.2904C7.15019 10.6604 7.69019 9.89042 8.28019 9.21042C9.31019 8.03042 10.5402 7.06042 11.7802 6.11042C13.4202 4.84042 15.2002 3.83042 17.0502 2.92042C19.5102 1.71042 22.1002 0.910423 24.8002 0.460423C25.7602 0.300423 26.7502 0.200423 27.7402 0.160423C34.7602 -0.0995773 41.7802 0.0604227 48.8002 0.0604227C118.52 0.0404227 188.23 0.0404227 257.95 0.0704227C260.52 0.0704227 263.09 0.380423 265.59 1.07042C267.48 1.60042 269.36 2.22042 271.07 3.19042C272.2 3.83042 273.46 4.32042 274.39 5.30042C274.51 5.43042 274.75 5.44042 274.93 5.53042C275.99 6.09042 276.94 6.85042 277.78 7.67042C279.77 9.59042 281.64 11.6204 283.09 14.0004C284.41 16.1604 285.49 18.4204 286.24 20.8504C286.79 22.6304 287.17 24.4304 287.38 26.2904C287.59 28.1204 287.61 29.9504 287.61 31.7804C287.61 37.8404 287.63 43.8904 287.61 49.9504C287.6 52.4204 287.23 54.8604 286.59 57.2504C285.91 59.8104 284.83 62.1804 283.51 64.4804C282.02 67.0604 280.2 69.3504 277.99 71.3204C275.99 73.1104 273.8 74.6704 271.39 75.8904C268.91 77.1504 266.32 78.1404 263.57 78.6504C262.41 78.8704 261.23 78.9904 260.04 79.0704C256.86 79.3004 253.69 79.1704 250.51 79.1704C214.95 79.1804 179.38 79.1704 143.82 79.1704L143.78 79.1804ZM179.1 3.02042H176.5C127.58 3.02042 78.6702 3.02042 29.7502 3.02042C28.0502 3.02042 26.3902 3.26042 24.7302 3.63042C23.2402 3.96042 21.7702 4.34042 20.3402 4.87042C17.1302 6.06042 14.3202 7.88042 11.7602 10.0804C9.38019 12.1304 7.62019 14.6904 6.15019 17.4504C4.94019 19.7204 4.10019 22.1304 3.55019 24.6404C3.32019 25.7104 3.06019 26.8004 3.05019 27.8904C3.01019 35.0204 3.05019 42.1604 3.01019 49.2904C3.01019 50.8404 3.18019 52.3704 3.44019 53.8804C3.88019 56.4104 4.68019 58.8304 5.82019 61.1304C6.32019 62.1304 6.95019 63.0704 7.53019 64.0204C8.44019 65.5204 9.57019 66.8304 10.7302 68.1104C11.3902 68.8404 12.1802 69.4404 12.9102 70.1004C14.3202 71.3604 15.9402 72.3104 17.5902 73.2104C18.3902 73.6404 19.2702 73.9104 20.0902 74.3004C21.9802 75.1804 23.9902 75.5604 26.0102 75.9304C27.6702 76.2404 29.3702 76.2004 31.0602 76.2004C79.8302 76.2004 128.6 76.2004 177.37 76.2004C177.94 76.2004 178.52 76.3804 179.1 76.1304C178.8 75.7404 178.29 75.8004 177.92 75.5804C177.05 75.0604 176.2 74.5104 175.33 73.9904C174.13 73.2704 172.99 72.4804 171.96 71.5704C170.52 70.3004 169.15 68.9304 167.87 67.4904C166.51 65.9704 165.41 64.2504 164.42 62.4604C163.25 60.3404 162.37 58.1204 161.61 55.8204C161.05 54.1304 160.97 52.3404 160.29 50.7004C160.59 49.9904 160.28 49.2904 160.28 48.5904C160.28 42.8104 160.27 37.0204 160.29 31.2404C160.29 30.1204 160.34 28.9804 160.55 27.8804C160.87 26.1404 161.22 24.4104 161.8 22.7204C162.81 19.7704 164.15 17.0004 165.89 14.4004C167.3 12.2904 169.03 10.4904 170.84 8.74042C173 6.65042 175.49 5.01042 178.15 3.62042C178.43 3.47042 178.77 3.43042 179.1 3.03042V3.02042ZM163.27 39.7004C163.27 40.6304 163.25 41.5704 163.27 42.5004C163.34 45.1504 163.07 47.8104 163.54 50.4604C163.9 52.5204 164.35 54.5404 165.1 56.5004C166.16 59.2804 167.57 61.8804 169.36 64.2704C171.6 67.2804 174.37 69.6904 177.52 71.7204C179.41 72.9404 181.44 73.8204 183.54 74.5804C185.01 75.1104 186.52 75.4504 188.06 75.7304C189.57 76.0004 191.08 76.1904 192.62 76.1904C212.38 76.1904 232.14 76.1904 251.9 76.1904C254.62 76.1904 257.33 76.2104 260.01 75.6804C261.57 75.3704 263.14 75.0704 264.62 74.4904C266.19 73.8704 267.72 73.1304 269.22 72.3404C271.05 71.3704 272.73 70.1604 274.29 68.8504C275.43 67.8904 276.48 66.7804 277.45 65.6104C279.76 62.7904 281.63 59.7304 282.82 56.2604C284.06 52.6804 284.61 49.0004 284.6 45.2204C284.6 41.2804 284.6 37.3404 284.6 33.4004C284.6 31.8404 284.48 30.2904 284.25 28.7404C283.94 26.6404 283.44 24.5804 282.7 22.6004C280.22 15.9804 275.93 10.8404 269.84 7.22042C266.8 5.41042 263.52 4.23042 260.02 3.61042C258.09 3.26042 256.15 3.05042 254.21 3.04042C234.08 3.01042 213.94 3.03042 193.81 3.01042C191.27 3.01042 188.78 3.27042 186.31 3.88042C181.45 5.07042 177.1 7.23042 173.38 10.5904C168.72 14.8004 165.63 19.9404 164.15 26.0404C163.95 26.8504 163.88 27.7004 163.68 28.4904C163.49 29.2604 163.33 30.0504 163.31 30.8104C163.24 33.7704 163.28 36.7404 163.28 39.7104L163.27 39.7004Z" fill="#FEFEFE"/>
<path d="M38.9299 25.4198C46.8099 25.2198 54.0299 31.9598 53.9899 40.5298C53.9599 47.8698 47.5299 54.4398 41.3399 55.1298C36.4599 55.6798 32.1499 54.5598 28.5599 51.1598C25.8499 48.5898 24.2599 45.3998 23.9999 41.6598C23.3299 31.9598 31.1099 25.2098 38.9199 25.4198H38.9299Z" fill="#32CC31"/>
<path d="M128.05 25.9205C129.3 25.5505 129.86 26.2905 130.44 27.2305C132.25 30.1605 134.13 33.0405 135.98 35.9405C136.64 36.9805 136.65 36.9805 137.32 35.9405C139.32 32.8205 141.31 29.7005 143.31 26.5705C143.58 26.1405 143.89 25.8705 144.46 25.9105C145.14 25.9605 145.83 25.9305 146.52 25.9205C146.94 25.9205 147.06 26.1105 146.86 26.4605C146.47 27.1405 146.07 27.8205 145.65 28.4805C143.47 31.8605 141.29 35.2305 139.1 38.6105C138.86 38.9905 138.87 39.3005 139.12 39.6905C141.63 43.5405 144.12 47.4105 146.61 51.2705C146.69 51.3905 146.76 51.5205 146.81 51.6505C147.03 52.2105 146.98 52.2805 146.36 52.2905C145.86 52.2905 145.36 52.2405 144.86 52.3005C144.03 52.4005 143.51 52.0705 143.07 51.3805C141.42 48.7605 139.74 46.1705 138.07 43.5705C137.69 42.9805 137.3 42.4105 136.92 41.8205C136.68 41.4505 136.53 41.5105 136.3 41.8605C134.16 45.2105 131.99 48.5505 129.85 51.9005C129.67 52.1805 129.47 52.3005 129.14 52.2905C128.39 52.2805 127.64 52.2905 126.89 52.2905C126.27 52.2905 126.18 52.1205 126.53 51.5805C127.35 50.3105 128.18 49.0505 129.01 47.7805C130.82 45.0305 132.62 42.2705 134.44 39.5205C134.62 39.2405 134.65 39.0205 134.46 38.7305C133.2 36.8305 131.96 34.9105 130.7 33.0205C130.03 32.0205 129.37 31.0205 128.73 30.0005C128.03 28.8805 127.28 27.7905 126.57 26.6805C126.16 26.0305 126.24 25.9105 127 25.9005C127.35 25.9005 127.71 25.9005 128.06 25.9005L128.05 25.9205Z" fill="#32CC31"/>
<path d="M107.36 39.0402C107.36 34.9102 107.36 30.7902 107.35 26.6602C107.35 26.1202 107.46 25.9102 108.06 25.9102C112.78 25.9302 117.5 25.9302 122.22 25.9102C122.79 25.9102 122.92 26.1102 122.94 26.6202C122.98 28.4102 123 28.4102 121.2 28.4102C117.77 28.4102 114.34 28.4202 110.91 28.4002C110.37 28.4002 110.2 28.5302 110.21 29.0902C110.25 31.8102 110.24 34.5202 110.23 37.2402C110.23 37.7302 110.36 37.8802 110.86 37.8802C114.37 37.8602 117.89 37.8802 121.4 37.8602C122.01 37.8602 122.24 38.0002 122.23 38.6502C122.2 40.3302 122.23 40.3502 120.58 40.3502C117.35 40.3602 114.12 40.3602 110.89 40.3502C110.39 40.3502 110.21 40.4602 110.21 41.0002C110.24 43.7002 110.25 46.3902 110.22 49.0902C110.22 49.6502 110.35 49.8402 110.94 49.8302C114.75 49.8002 118.55 49.8202 122.36 49.8202C122.94 49.8202 123.233 50.1035 123.24 50.6702C123.253 51.7635 122.72 52.3102 121.64 52.3102C117.21 52.3102 112.78 52.3102 108.35 52.3102C107.697 52.3102 107.37 51.9935 107.37 51.3602C107.37 47.2502 107.37 43.1502 107.37 39.0402H107.36Z" fill="#32CC31"/>
<path d="M66.04 39.0002C66.04 34.8702 66.05 30.7502 66.03 26.6202C66.03 26.0602 66.2 25.9102 66.74 25.9102C71.48 25.9302 76.22 25.9202 80.96 25.9102C81.49 25.9102 81.64 26.1202 81.65 26.6102C81.66 28.3702 81.67 28.3902 80.13 28.4002C76.65 28.4102 73.17 28.4202 69.69 28.3902C69.06 28.3902 68.9 28.5402 68.91 29.1702C68.95 31.8702 68.94 34.5602 68.91 37.2602C68.91 37.7602 69.06 37.8802 69.54 37.8802C72.93 37.8602 76.32 37.8802 79.71 37.8602C80.23 37.8602 80.49 37.9502 80.41 38.5302C80.33 39.1202 80.66 39.8802 80.27 40.2602C79.91 40.6002 79.16 40.3602 78.58 40.3602C75.56 40.3602 72.55 40.3702 69.53 40.3602C69.04 40.3602 68.9 40.4802 68.9 40.9802C68.92 44.5502 68.9 48.1102 68.92 51.6802C68.92 52.2002 68.78 52.3802 68.26 52.3302C67.79 52.2902 67.3 52.3002 66.83 52.3302C66.23 52.3702 66.02 52.1002 66.02 51.5202C66.03 48.9502 66.02 46.3802 66.02 43.8102C66.02 42.2102 66.02 40.6202 66.02 39.0202L66.04 39.0002Z" fill="#32CC31"/>
<path d="M87.1399 39.0497C87.1399 34.8997 87.1399 30.7597 87.1299 26.6097C87.1299 26.0797 87.3199 25.8997 87.8099 25.9097C88.2899 25.9197 88.7699 25.9397 89.2399 25.9097C89.7199 25.8797 89.9099 26.0397 89.8899 26.5397C89.8599 27.4297 89.8799 28.3197 89.8799 29.2097C89.8799 35.7997 89.8799 42.3997 89.8799 48.9897C89.8799 49.5297 90.1432 49.7997 90.6699 49.7997C94.3499 49.7997 98.0299 49.7997 101.71 49.7897C102.22 49.7897 102.42 49.9197 102.37 50.4397C102.33 50.9097 102.34 51.3897 102.37 51.8697C102.39 52.1997 102.25 52.2897 101.93 52.2897C97.1899 52.2897 92.4499 52.2897 87.7099 52.2897C87.2899 52.2897 87.1499 52.0797 87.1399 51.7197C87.1299 51.2197 87.1399 50.7297 87.1399 50.2297C87.1399 46.4997 87.1399 42.7697 87.1399 39.0397V39.0497Z" fill="#32CC31"/>
<path d="M258.66 52.7903C256.93 52.7903 255.45 52.6503 254.03 52.0603C251.51 51.0103 249.92 49.2103 249.39 46.5103C249.21 45.5803 249.37 45.3603 250.34 45.3403C250.63 45.3403 250.92 45.3403 251.21 45.3403C252.2 45.3403 252.22 45.3403 252.46 46.3103C252.77 47.5903 253.53 48.5503 254.67 49.1503C256.32 50.0303 258.05 50.3803 259.96 49.9703C261.18 49.7103 262.34 49.3703 263.27 48.5603C265.38 46.7503 265.9 43.6603 262.79 41.9103C262.38 41.6803 261.93 41.5203 261.5 41.3303C259.16 40.3303 256.6 39.9503 254.31 38.8203C252.66 38.0103 251 37.0803 250.4 35.2003C249.52 32.4503 250.01 29.6503 252.28 27.6003C253.39 26.6003 254.7 26.0903 256.1 25.7503C258.95 25.0603 261.68 25.4003 264.2 26.9503C265.83 27.9603 267 29.3403 267.23 31.3303C267.23 31.3503 267.23 31.3703 267.23 31.3903C267.55 32.8703 267.54 32.8903 266.05 32.8603C265.84 32.8603 265.63 32.8603 265.43 32.8503C264.66 32.8503 264.45 32.5703 264.36 31.8103C264.26 31.0103 263.78 30.3603 263.2 29.8003C260.98 27.6903 256.87 27.6503 254.62 29.3803C252.81 30.7703 252.36 32.9903 253.42 34.4303C254.06 35.3003 254.91 35.9403 255.9 36.4003C257.78 37.2803 259.81 37.6603 261.75 38.3203C262.96 38.7303 264.1 39.2703 265.14 39.9803C266.82 41.1203 267.71 42.6603 267.75 44.7603C267.79 46.8903 267.35 48.7803 265.78 50.3003C264.55 51.5003 263.04 52.1803 261.37 52.5203C260.4 52.7203 259.42 52.8203 258.65 52.7603L258.66 52.7903Z" fill="#FEFEFE"/>
<path d="M223.72 26.3503C223.69 26.0603 223.76 25.8903 224.12 25.9103C224.74 25.9403 225.37 25.9503 225.99 25.9103C226.51 25.8703 226.68 25.9903 226.68 26.5603C226.65 32.0303 226.68 37.5103 226.66 42.9803C226.66 44.0203 226.85 45.0003 227.29 45.9403C228.37 48.2803 230.21 49.5503 232.75 49.9503C234.25 50.1803 235.67 49.9903 237.02 49.4203C239.2 48.4903 240.56 46.8303 241.03 44.4703C241.23 43.4403 241.16 42.4103 241.17 41.3903C241.2 36.7003 241.17 32.0203 241.2 27.3303C241.2 26.9803 240.99 26.6503 241.15 26.2703C241.25 26.0203 241.34 25.9103 241.62 25.9203C242.33 25.9403 243.03 25.9403 243.74 25.9203C244.04 25.9203 244.12 26.0303 244.12 26.3203C244.12 31.9603 244.18 37.6003 244.09 43.2403C244.04 46.5703 242.8 49.4103 239.85 51.2703C238.5 52.1203 237.02 52.6103 235.42 52.7203C233.56 52.8503 231.71 52.8303 229.93 52.1703C226.56 50.9403 224.55 48.5803 223.93 45.0403C223.72 43.8103 223.7 42.5803 223.7 41.3403C223.72 36.3403 223.71 31.3503 223.72 26.3503Z" fill="#FEFEFE"/>
<path d="M180.95 39.0602C180.95 34.8902 180.96 30.7302 180.94 26.5602C180.94 26.0302 181.1 25.9102 181.61 25.9102C184.54 25.9302 187.47 25.9102 190.4 25.9202C192.73 25.9202 194.79 26.7202 196.36 28.3902C197.35 29.4402 197.98 30.7902 198.12 32.3202C198.21 33.2502 198.23 34.1702 198.21 35.0902C198.13 38.3202 196.16 41.0102 192.9 41.9902C192.02 42.2602 191.14 42.3502 190.23 42.3402C188.23 42.3302 186.24 42.3402 184.24 42.3302C183.83 42.3302 183.73 42.4402 183.73 42.8402C183.75 45.8002 183.73 48.7702 183.75 51.7302C183.75 52.2002 183.64 52.3402 183.17 52.3002C182.68 52.2602 182.17 52.2502 181.68 52.3002C181.12 52.3602 180.97 52.1402 180.98 51.6002C181 47.4102 180.99 43.2302 180.99 39.0402C180.98 39.0402 180.97 39.0402 180.96 39.0402L180.95 39.0602ZM183.74 34.1402C183.74 35.9002 183.74 37.6602 183.74 39.4202C183.74 39.6302 183.66 39.8802 184.05 39.8702C186.16 39.8002 188.28 40.0202 190.39 39.7402C191.99 39.5302 193.41 38.9602 194.4 37.5802C195.28 36.3602 195.44 34.9702 195.35 33.5402C195.26 32.0502 194.71 30.7602 193.54 29.7802C192.16 28.6302 190.47 28.5202 188.8 28.4302C187.29 28.3502 185.77 28.4302 184.25 28.4002C183.84 28.4002 183.74 28.5102 183.74 28.9102C183.76 30.6502 183.74 32.3902 183.75 34.1302L183.74 34.1402Z" fill="#FEFEFE"/>
<path d="M206.42 37.9305C206.42 41.6805 206.43 45.4305 206.41 49.1805C206.41 49.7105 206.55 49.8205 207.06 49.8205C210.78 49.8005 214.5 49.8205 218.22 49.8005C218.72 49.8005 218.9 49.9405 218.84 50.4205C218.77 51.0305 219.13 51.8405 218.71 52.2005C218.35 52.5005 217.56 52.3005 216.96 52.3005C212.72 52.3005 208.48 52.3005 204.24 52.3105C203.83 52.3105 203.73 52.2305 203.66 51.7905C203.52 50.8405 203.68 49.9105 203.68 48.9805C203.66 41.5405 203.68 34.1005 203.65 26.6605C203.65 26.0905 203.76 25.8305 204.39 25.9105C205.04 26.0005 205.89 25.6305 206.3 26.0605C206.68 26.4505 206.4 27.2805 206.41 27.9205C206.41 31.2605 206.41 34.5905 206.41 37.9305H206.42Z" fill="#FEFEFE"/>
</svg>
