<svg width="278" height="80" viewBox="0 0 278 80" fill="none" xmlns="http://www.w3.org/2000/svg">
<path d="M249.36 79.5201C210.1 79.5201 170.85 79.5201 131.59 79.5201C97.7503 79.5201 63.9002 79.5201 30.0602 79.5201C29.9402 79.5201 29.8102 79.5201 29.6902 79.5201C29.3602 79.3901 29.0303 79.3901 28.7003 79.4901C25.4803 79.2401 22.3202 78.7501 19.3002 77.5201C15.8302 76.1101 12.7702 74.0801 9.92023 71.6701C8.04023 70.0801 6.54024 68.2001 5.18024 66.2001C3.72024 64.0501 2.64027 61.6901 1.78027 59.2301C1.15027 57.4301 0.890217 55.5701 0.660217 53.6901C0.600217 53.2201 0.680232 52.7001 0.300232 52.3001C0.420232 52.1501 0.310273 52.0201 0.280273 51.8801C0.570273 51.7201 0.440247 51.4501 0.440247 51.2101C0.440247 43.8901 0.460259 36.5801 0.390259 29.2601C0.380259 28.1301 0.710227 27.0601 0.670227 25.9401C0.880227 25.7801 0.980256 25.6101 0.700256 25.4301C1.06026 23.7701 1.35024 22.1101 1.93024 20.5001C2.75024 18.2201 3.85025 16.0901 5.07025 14.0101C5.73025 12.8901 6.46027 11.8101 7.34027 10.8501C8.21027 9.91008 9.20025 9.08008 10.0703 8.14008C11.8703 6.21008 14.0502 4.75008 16.3802 3.63008C19.9202 1.93008 23.6403 0.700078 27.6403 0.480078C29.6803 0.360078 31.7102 0.330078 33.7502 0.330078C104.91 0.330078 176.07 0.330078 247.22 0.330078C249.18 0.330078 251.12 0.530078 253.06 0.790078C253.99 0.920078 254.82 1.36008 255.73 1.58008C256.81 1.84008 257.92 2.04008 258.96 2.51008C263.18 4.44008 267.13 6.77008 270.21 10.3001C273.06 13.5701 275.22 17.2501 276.46 21.4301C277.32 24.3201 277.82 27.2501 277.81 30.2801C277.79 36.5501 277.77 42.8101 277.81 49.0801C277.83 52.7101 277.3 56.2201 276.07 59.6501C274.7 63.4401 272.73 66.8801 269.98 69.8001C267.14 72.8201 263.91 75.4001 260 77.0101C257.25 78.1401 254.46 79.0701 251.47 79.2901C250.93 79.3301 250.4 79.4201 249.86 79.4801C249.69 79.3901 249.52 79.4001 249.37 79.5101L249.36 79.5201ZM272.82 56.8101C273.4 56.2001 273.29 55.3701 273.49 54.6401C273.75 53.6501 274.1 52.6801 274.31 51.6801C274.69 49.8901 274.81 48.0701 274.81 46.2401C274.81 42.3001 274.77 38.3501 274.83 34.4101C274.87 31.8301 274.61 29.2901 274.03 26.7801C272.79 21.4301 270.28 16.7301 266.54 12.7001C263.74 9.69008 260.38 7.45008 256.62 5.84008C252.75 4.18008 248.68 3.33008 244.46 3.33008C224.14 3.32008 203.81 3.33008 183.49 3.32008C180.41 3.32008 177.38 3.76008 174.47 4.73008C165.02 7.89008 158.47 14.0901 155.06 23.4801C154.15 25.9801 153.46 28.5701 153.42 31.2401C153.34 37.0101 153.23 42.7801 153.44 48.5401C153.6 53.0901 154.95 57.4001 157.26 61.3901C159.42 65.1301 162.22 68.2801 165.71 70.8101C167.05 71.7801 168.45 72.6701 169.93 73.4401C171.17 74.0901 172.47 74.5801 173.73 75.1801C174.49 75.5401 175.32 75.4801 176.12 75.6501C178.03 76.0501 179.94 76.4701 181.91 76.4501C182.07 76.5601 182.23 76.5701 182.4 76.4701C182.9 76.4901 183.4 76.5301 183.9 76.5301C204.06 76.5301 224.22 76.5301 244.37 76.5301C247.47 76.5301 250.52 76.1301 253.48 75.2201C256.51 74.2901 259.39 73.0201 261.92 71.0701C263.64 69.7501 265.27 68.3401 266.8 66.7901C268.02 65.5601 269.02 64.1801 269.96 62.7401C270.82 61.4101 271.38 59.9401 272.21 58.6001C272.45 58.2101 272.79 57.7101 272.68 57.1401C272.73 57.0301 272.79 56.9201 272.84 56.8101H272.82ZM3.46027 27.6801C3.13027 27.7401 3.19024 27.9701 3.25024 28.1901C3.27024 28.6701 3.43024 29.1201 3.43024 29.6201C3.41024 36.2901 3.42022 42.9601 3.41022 49.6401C3.41022 51.6601 3.63023 53.6501 4.11023 55.6201C4.92023 58.9201 6.22025 61.9801 8.13025 64.7801C11.1402 69.1901 15.0502 72.5001 20.0402 74.4901C20.3802 74.6301 20.8102 74.6701 21.0502 74.9101C21.6002 75.4501 22.2702 75.4201 22.9402 75.5101C22.9702 75.6701 23.0203 75.7901 23.2103 75.6701C23.3703 75.6901 23.5403 75.7001 23.7003 75.7201C23.7703 76.0701 23.9702 76.0501 24.2202 75.9101C24.5902 75.9501 24.9703 75.9601 25.3303 76.0301C27.0903 76.4101 28.8702 76.5301 30.6602 76.5301C76.3402 76.5301 122.02 76.5301 167.71 76.5301C168.1 76.5301 168.5 76.5001 168.89 76.4801C168.77 76.2301 168.6 76.1401 168.42 76.0601C166.39 75.1501 164.51 73.9601 162.82 72.5401C158.25 68.6901 154.57 64.1701 152.46 58.5001C151.28 55.3401 150.43 52.1001 150.4 48.7201C150.34 42.7901 150.37 36.8501 150.36 30.9201C150.6 30.7601 150.67 30.6001 150.38 30.4201C150.66 28.2801 150.77 26.1201 151.43 24.0201C152.06 22.0401 152.75 20.0901 153.71 18.2601C154.84 16.1101 156.11 14.0301 157.8 12.2401C159.63 10.3001 161.45 8.38008 163.6 6.77008C165.26 5.53008 167.09 4.57008 168.86 3.50008C168.93 3.49008 169.05 3.47008 169.05 3.46008C169.05 3.29008 168.94 3.34008 168.84 3.37008C167.84 3.35008 166.84 3.31008 165.85 3.31008C121.02 3.31008 76.1902 3.31008 31.3502 3.31008C29.6002 3.31008 27.8803 3.48008 26.1503 3.73008C22.1303 4.33008 18.5002 5.83008 15.1702 8.08008C11.8802 10.3001 9.15027 13.0701 7.09027 16.4901C6.44027 17.5801 5.93024 18.7101 5.43024 19.8601C4.65024 21.6701 4.11024 23.5401 3.68024 25.4501C3.51024 26.1801 3.71025 26.9501 3.44025 27.6701L3.46027 27.6801Z" fill="#FEFEFE"/>
<path d="M28.7002 79.4997C29.0302 79.4097 29.3702 79.4097 29.6902 79.5297C29.3502 79.7897 29.0202 79.7497 28.7002 79.4997Z" fill="#525151"/>
<path d="M0.270168 51.8896C0.310168 52.0296 0.410126 52.1697 0.290126 52.3097C0.0701264 52.1797 0.0701679 52.0396 0.270168 51.8896Z" fill="#525151"/>
<path d="M249.36 79.5204C249.52 79.4104 249.68 79.4004 249.85 79.4904C249.7 79.7004 249.53 79.7204 249.36 79.5204Z" fill="#525151"/>
<path d="M0.689839 25.4404C0.969839 25.6204 0.87981 25.7904 0.65981 25.9504C0.31981 25.7604 0.329839 25.5904 0.689839 25.4404Z" fill="#C5C4C4"/>
<path d="M150.38 30.9297C150.03 30.7497 150.04 30.5797 150.4 30.4297C150.69 30.6097 150.62 30.7797 150.38 30.9297Z" fill="#C5C4C4"/>
<path d="M3.46021 27.6904C3.81021 28.0304 3.54019 28.1204 3.25019 28.2004C3.19019 27.9804 3.13021 27.7504 3.46021 27.6904Z" fill="#525151"/>
<path d="M23.7002 75.7301C24.0002 75.4301 24.1202 75.6501 24.2202 75.9201C23.9702 76.0701 23.7702 76.0801 23.7002 75.7301Z" fill="#525151"/>
<path d="M181.89 76.4601C182.06 76.2601 182.22 76.2901 182.38 76.4801C182.21 76.5801 182.05 76.5701 181.89 76.4601Z" fill="#525151"/>
<path d="M168.88 3.50964L168.82 3.44964L168.87 3.37964C168.97 3.33964 169.08 3.29964 169.08 3.46964C169.08 3.48964 168.96 3.49964 168.89 3.50964H168.88Z" fill="#525151"/>
<path d="M22.9399 75.5098C23.0599 75.5098 23.16 75.5498 23.21 75.6698C23.01 75.7898 22.9599 75.6698 22.9399 75.5098Z" fill="#525151"/>
<path d="M272.66 57.1503C272.57 56.9703 272.62 56.8603 272.82 56.8203C272.77 56.9303 272.71 57.0403 272.66 57.1503Z" fill="#525151"/>
<path d="M24.4102 40.6895C24.4102 32.1495 31.4602 25.7695 39.4402 25.7695C43.4202 25.7695 46.9902 27.1895 49.8002 30.0895C52.6702 33.0495 54.3602 36.6895 54.3302 40.7695C54.2702 48.8095 48.0202 55.5095 39.4702 55.5995C31.2002 55.6895 24.4002 48.8695 24.4102 40.6995V40.6895Z" fill="#FE0000"/>
<path d="M120.19 39.4301C120.19 35.4501 120.19 31.4701 120.19 27.4901C120.19 26.2501 120.19 26.2401 121.42 26.2401C125.75 26.2401 130.08 26.2401 134.4 26.2401C134.79 26.2401 135.34 26.0501 135.53 26.5201C135.78 27.1401 135.7 27.8301 135.59 28.4801C135.55 28.6901 135.27 28.7101 135.06 28.7101C134.69 28.7101 134.31 28.7201 133.94 28.7201C130.61 28.7201 127.28 28.7201 123.95 28.7201C122.9 28.7201 122.89 28.7401 122.88 29.7201C122.87 32.2101 122.88 34.7001 122.88 37.1901C122.88 38.1601 122.9 38.1801 123.95 38.1801C127.11 38.1801 130.28 38.1801 133.44 38.1801C133.73 38.1801 134.02 38.1801 134.31 38.1801C134.66 38.1801 134.85 38.3701 134.85 38.7201C134.85 39.1801 134.85 39.6301 134.85 40.0901C134.85 40.5301 134.6 40.6601 134.21 40.6501C133.92 40.6501 133.63 40.6501 133.34 40.6501C130.18 40.6501 127.01 40.6501 123.85 40.6501C122.89 40.6501 122.87 40.6701 122.86 41.6101C122.85 44.1401 122.85 46.6701 122.86 49.2001C122.86 50.1101 122.88 50.1301 123.86 50.1301C127.31 50.1301 130.77 50.1301 134.22 50.1301C134.55 50.1301 134.89 50.1301 135.22 50.1401C135.61 50.1501 135.84 50.3301 135.85 50.7501C135.85 50.9601 135.85 51.1601 135.85 51.3701C135.85 52.5901 135.85 52.6001 134.63 52.6001C130.22 52.6001 125.81 52.6001 121.4 52.6001C120.19 52.6001 120.18 52.5901 120.18 51.3401C120.18 47.3601 120.18 43.3801 120.18 39.4001L120.19 39.4301Z" fill="#FE0000"/>
<path d="M105.15 49.0696C106.86 44.1896 108.5 39.5096 110.15 34.8296C111.05 32.2696 111.99 29.7196 112.86 27.1496C113.07 26.5396 113.39 26.2796 114 26.2296C115.96 26.0696 116.13 26.2296 115.35 27.9696C114.17 30.6396 113.19 33.3996 112.27 36.1596C111.05 39.8396 109.69 43.4596 108.42 47.1096C107.88 48.6796 107.25 50.2196 106.73 51.7896C106.52 52.4196 106.18 52.6796 105.55 52.6296C105.51 52.6296 105.47 52.6296 105.43 52.6296C103.26 52.6496 103.64 52.6296 103.05 51.0296C100.15 43.1096 97.2297 35.1996 94.3197 27.2796C94.0097 26.4396 94.1297 26.2796 95.0397 26.2396C95.3697 26.2296 95.7097 26.2596 96.0397 26.2396C96.5497 26.2096 96.8098 26.5196 96.9598 26.9196C98.0398 29.9696 99.0197 33.0596 100.18 36.0796C101.77 40.1996 103.21 44.3796 104.76 48.5196C104.82 48.6696 104.94 48.7896 105.14 49.0796L105.15 49.0696Z" fill="#FE0000"/>
<path d="M66.9299 39.3796C66.9299 35.5196 66.9299 31.6596 66.9299 27.7996C66.9299 27.5096 66.9299 27.2196 66.9299 26.9296C66.9299 26.8096 66.9299 26.6496 66.9899 26.5696C67.5099 25.9496 68.2299 26.3096 68.8499 26.2396C69.2899 26.1896 69.5699 26.4196 69.5999 26.8796C69.6199 27.2896 69.6299 27.7096 69.6299 28.1196C69.6299 35.0096 69.63 41.8896 69.64 48.7796C69.64 48.9496 69.64 49.1096 69.64 49.2796C69.66 50.1396 69.67 50.1596 70.58 50.1596C72.91 50.1596 75.2399 50.1496 77.5699 50.1396C78.7399 50.1396 79.8999 50.1396 81.0699 50.1596C81.9999 50.1796 82.0599 50.2596 82.1099 51.1496C82.1099 51.3196 82.1099 51.4796 82.1099 51.6496C82.0899 52.5796 82.0799 52.6196 81.1099 52.6196C76.7399 52.6196 72.3699 52.6196 67.9999 52.6196C66.9699 52.6196 66.9199 52.5596 66.9199 51.4396C66.9199 47.4196 66.9199 43.3896 66.9199 39.3696L66.9299 39.3796Z" fill="#FE0000"/>
<path d="M89.8901 39.5704C89.8901 43.5504 89.8901 47.5404 89.8901 51.5204C89.8901 52.6104 89.8801 52.6104 88.8001 52.6304C88.5501 52.6304 88.3001 52.6104 88.0501 52.6304C87.4801 52.6704 87.1701 52.4603 87.2201 51.8503C87.2301 51.6403 87.2201 51.4404 87.2201 51.2304C87.2201 43.3404 87.2201 35.4604 87.2201 27.5704C87.2201 27.3204 87.2201 27.0704 87.2201 26.8204C87.2301 26.4804 87.4001 26.2604 87.7501 26.2504C88.2501 26.2304 88.7501 26.2304 89.2501 26.2504C89.6501 26.2504 89.8601 26.4904 89.8801 26.8804C89.9001 27.2104 89.9001 27.5404 89.9001 27.8804C89.9001 31.7804 89.9001 35.6804 89.9001 39.5804L89.8901 39.5704Z" fill="#FE0000"/>
<path d="M248.61 53.0899C247.54 53.1399 246.22 53.0199 244.94 52.5799C242.5 51.7499 240.77 50.1999 240.01 47.7099C239.46 45.8999 239.63 45.6899 241.5 45.6899C242.15 45.6899 242.53 45.6899 242.75 46.5699C243.19 48.2999 244.48 49.4499 246.17 50.0199C248.25 50.7099 250.36 50.6799 252.36 49.7499C254.11 48.9399 255.36 47.6699 255.37 45.5599C255.37 44.4299 254.92 43.5599 254.08 42.8499C253.44 42.3099 252.69 41.9199 251.9 41.6699C250.45 41.2199 249.02 40.7299 247.55 40.3099C245.67 39.7699 243.82 38.9699 242.28 37.6799C241.08 36.6799 240.45 35.3299 240.38 33.7899C240.21 30.2199 241.96 27.5199 245.77 26.3499C247.51 25.8199 249.24 25.6199 251.02 25.9399C252.28 26.1699 253.54 26.4899 254.59 27.2399C256.08 28.2999 257.3 29.6099 257.71 31.4799C257.79 31.8399 257.79 32.2199 257.82 32.5899C257.86 32.9999 257.69 33.2199 257.25 33.1799C257.13 33.1699 257 33.1799 256.88 33.1799C254.85 33.1299 255.27 33.4499 254.6 31.6799C253.95 29.9699 252.55 29.0899 250.87 28.7299C249.15 28.3599 247.44 28.4099 245.79 29.2299C244.59 29.8299 243.72 30.6399 243.41 31.9699C243 33.7599 243.58 35.1199 245.14 36.1199C246.24 36.8199 247.44 37.2899 248.68 37.6199C250.15 38.0199 251.6 38.4799 253.03 39.0299C254.28 39.5099 255.47 40.1499 256.43 41.0699C258.43 42.9699 258.71 45.3299 257.93 47.8399C257.04 50.6899 254.85 52.0999 252.1 52.8499C251.04 53.1399 249.96 53.1299 248.61 53.0899Z" fill="#FEFEFE"/>
<path d="M221.13 52.8396C220.97 52.8196 220.8 52.7896 220.64 52.7696C220.6 52.6496 220.5 52.5996 220.38 52.5996C218.82 52.3096 217.61 51.4196 216.58 50.3096C215.51 49.1396 214.7 47.8196 214.32 46.2196C214.19 45.6796 214.49 45.2296 214.32 44.7096C214.17 44.2496 214.18 43.7196 214.2 43.2296C214.41 38.1296 214.24 33.0196 214.3 27.9196C214.32 25.9096 214.11 26.2696 216.06 26.2496C217.04 26.2396 217.05 26.2596 217.06 27.3096C217.08 32.5396 217.14 37.7696 217.09 42.9896C217.07 45.3496 217.73 47.3596 219.62 48.8196C222.05 50.6896 224.78 50.8496 227.53 49.7396C230.2 48.6696 231.34 46.4296 231.58 43.6796C231.65 42.8996 231.64 42.0996 231.64 41.3196C231.64 36.7996 231.64 32.2696 231.64 27.7496C231.64 27.4596 231.64 27.1696 231.64 26.8796C231.63 26.3996 231.88 26.2296 232.34 26.2396C234.91 26.2796 234.44 25.8996 234.45 28.1696C234.47 32.8596 234.49 37.5496 234.48 42.2396C234.48 43.5996 234.5 44.9696 234.14 46.3096C233.57 48.3696 232.43 50.0296 230.74 51.3396C229.03 52.6796 227.04 53.0996 224.94 53.1196C223.78 53.1296 222.61 53.1096 221.46 52.9096C221.36 52.8896 221.25 52.8696 221.15 52.8496L221.13 52.8396Z" fill="#FEFEFE"/>
<path d="M171.38 39.36C171.38 35.46 171.38 31.57 171.38 27.67C171.38 27.38 171.4 27.09 171.38 26.8C171.36 26.36 171.59 26.21 171.99 26.24C172.2 26.25 172.41 26.24 172.61 26.24C175.23 26.24 177.85 26.27 180.47 26.24C182.47 26.21 184.23 26.9 185.88 27.93C186.86 28.54 187.44 29.56 187.87 30.52C188.47 31.84 188.99 33.26 188.82 34.78C188.59 36.85 188.04 38.88 186.6 40.36C185.25 41.74 183.49 42.7 181.39 42.68C179.39 42.66 177.4 42.68 175.4 42.68C174.34 42.68 174.33 42.68 174.33 43.77C174.33 46.42 174.33 49.08 174.33 51.73C174.33 52.62 174.31 52.61 173.46 52.64C171.37 52.7 171.37 52.7 171.37 50.56C171.37 46.83 171.37 43.1 171.37 39.37L171.38 39.36ZM174.35 34.43C174.35 36.13 174.35 37.83 174.35 39.53C174.35 39.88 174.34 40.2 174.84 40.18C177.12 40.09 179.42 40.42 181.68 39.92C183.16 39.6 184.38 38.89 185.13 37.49C186.94 34.12 185.57 29.39 180.88 28.88C178.97 28.67 177.06 28.8 175.15 28.7C174.43 28.66 174.33 28.97 174.34 29.57C174.37 31.19 174.34 32.8 174.34 34.42L174.35 34.43Z" fill="#FEFEFE"/>
<path d="M193.87 39.52C193.87 35.58 193.87 31.64 193.87 27.71C193.87 27.42 193.88 27.13 193.87 26.84C193.86 26.44 194.01 26.27 194.44 26.23C196.81 25.99 196.83 26 196.83 28.39C196.83 35.15 196.83 41.9 196.83 48.66C196.83 48.95 196.85 49.24 196.83 49.53C196.78 50.03 197.02 50.17 197.48 50.15C198.56 50.13 199.64 50.15 200.72 50.15C203.3 50.15 205.88 50.16 208.46 50.14C209.08 50.14 209.36 50.28 209.34 50.96C209.27 52.96 209.57 52.62 207.72 52.63C203.52 52.65 199.32 52.63 195.12 52.63C193.79 52.63 193.87 52.75 193.87 51.33C193.87 47.39 193.87 43.45 193.87 39.52Z" fill="#FEFEFE"/>
<path d="M220.37 52.5898C220.49 52.5898 220.59 52.6398 220.63 52.7598C220.43 52.8698 220.38 52.7598 220.37 52.5898Z" fill="#C5C4C4"/>
<path d="M221.13 52.8398C221.23 52.8598 221.34 52.8798 221.44 52.8998C221.4 53.0098 221.33 53.0998 221.2 53.0298C221.15 53.0098 221.15 52.8998 221.13 52.8398Z" fill="#C5C4C4"/>
</svg>
