<svg width="129" height="80" viewBox="0 0 129 80" fill="none" xmlns="http://www.w3.org/2000/svg">
<path d="M127.61 56.5901C127.69 57.3901 127.31 58.0901 127.07 58.8101C125.93 62.1701 124.46 65.3701 122.14 68.1101C119.98 70.6701 117.55 72.9301 114.73 74.7601C111.24 77.0201 107.48 78.5901 103.34 79.2001C103.08 78.9601 102.83 79.0301 102.6 79.2501C101.85 79.3201 101.11 79.5001 100.34 79.4501C100.08 79.2101 99.8398 79.2601 99.5998 79.4801C98.9798 79.5001 98.3498 79.5301 97.7298 79.5301C75.2798 79.5301 52.8198 79.5301 30.3698 79.5301C29.9598 79.4001 29.5398 79.4001 29.1298 79.4801C25.9998 79.2001 22.9198 78.7201 19.9798 77.5201C16.4698 76.0801 13.3698 74.0501 10.5098 71.5701C8.77978 70.0701 7.3398 68.3501 6.0698 66.4801C4.5398 64.2201 3.37979 61.7801 2.44979 59.2101C1.63979 56.9701 1.55978 54.6301 1.14978 52.3301C1.42978 52.1501 1.35979 51.9801 1.11979 51.8301C1.11979 44.4001 1.07979 36.9701 1.10979 29.5401C1.12979 23.7401 2.79979 18.4301 6.04979 13.6001C7.89979 10.8501 10.1598 8.46014 12.7098 6.39014C15.1398 4.42014 17.9498 3.05014 20.9298 2.01014C24.3698 0.800141 27.9098 0.320141 31.5298 0.320141C53.7698 0.300141 76.0098 0.310141 98.2498 0.320141C99.3698 0.320141 100.49 0.430141 101.61 0.490141C101.77 0.600141 101.93 0.610141 102.11 0.520141C103.72 0.580141 105.2 1.22014 106.74 1.59014C108.54 2.02014 110.31 2.58014 111.91 3.54014C113.38 4.43014 114.93 5.17014 116.34 6.18014C117.76 7.19014 119.11 8.28014 120.28 9.58014C121.92 11.4201 123.44 13.3301 124.64 15.5201C125.67 17.4001 126.58 19.3201 127.16 21.3801C127.41 22.2601 127.94 23.1201 127.64 24.1101C128.57 25.3101 128.23 26.7701 128.42 28.1101C128.53 28.9301 128.55 29.7601 128.55 30.5901C128.55 36.8901 128.56 43.1901 128.55 49.4901C128.55 51.6501 128.34 53.7901 127.93 55.9101C127.67 56.0601 127.49 56.2401 127.62 56.5701L127.61 56.5901ZM3.91979 28.4501C4.18979 28.8101 4.08979 29.2301 4.08979 29.6301C4.08979 36.0901 4.08979 42.5601 4.08979 49.0201C4.08979 51.2901 4.26979 53.5201 4.80979 55.7501C5.86979 60.1301 7.83979 64.0201 10.8098 67.4201C11.7098 68.4501 12.7398 69.3601 13.7298 70.3001C14.0498 70.6001 14.2598 71.1101 14.6198 71.2401C15.7898 71.6601 16.6998 72.5001 17.7598 73.0901C19.2698 73.9301 20.8898 74.5201 22.4498 75.2401C23.9498 75.9401 25.6498 75.9801 27.2798 76.2501C28.0498 76.3801 28.8398 76.5301 29.6298 76.4601C29.7898 76.5701 29.9498 76.5801 30.1198 76.4801C30.6598 76.5001 31.1998 76.5401 31.7398 76.5401C53.8198 76.5401 75.8998 76.5401 97.9798 76.5401C98.5198 76.5401 99.0598 76.5001 99.5998 76.4801C99.7698 76.5801 99.9298 76.5701 100.09 76.4501C102.13 76.4301 104.11 75.9701 106.06 75.4401C110.16 74.3301 113.64 72.0901 116.85 69.3901C118.64 67.8801 119.86 65.9001 121.16 64.0101C122.16 62.5601 122.86 60.9201 123.54 59.2801C124.83 56.1801 125.51 52.9601 125.53 49.6201C125.56 43.0601 125.54 36.5001 125.53 29.9501C125.53 29.4901 125.53 29.0401 125.48 28.5801C124.87 23.0601 123.1 18.0301 119.61 13.5901C116.64 9.82014 112.89 7.17014 108.53 5.35014C104.87 3.82014 101 3.30014 97.0298 3.31014C75.2098 3.33014 53.3898 3.32014 31.5698 3.32014C29.9898 3.32014 28.4398 3.51014 26.8698 3.74014C22.9398 4.32014 19.3998 5.81014 16.0798 7.93014C13.4598 9.61014 11.2498 11.7501 9.3198 14.1501C7.5898 16.2901 6.38979 18.7901 5.46979 21.3801C5.03979 22.5901 4.64979 23.8401 4.43979 25.1001C4.29979 25.9401 4.37979 26.8301 4.13979 27.6801C3.71979 27.8301 3.89979 28.1601 3.91979 28.4401V28.4501Z" fill="#FEFEFE"/>
<path d="M29.1201 79.4897C29.5401 79.3997 29.9501 79.4097 30.3601 79.5397C29.9301 79.8097 29.5201 79.7697 29.1201 79.4897Z" fill="#525151"/>
<path d="M102.59 79.2404C102.82 79.0204 103.07 78.9504 103.33 79.1904C103.09 79.3204 102.84 79.3304 102.59 79.2404Z" fill="#C5C4C4"/>
<path d="M99.6001 79.4798C99.8401 79.2598 100.08 79.2098 100.34 79.4498C100.1 79.5698 99.8501 79.5798 99.6001 79.4798Z" fill="#C5C4C4"/>
<path d="M102.1 0.539748C101.93 0.629748 101.76 0.619748 101.6 0.509748C101.78 0.319748 101.94 0.359748 102.1 0.539748Z" fill="#525151"/>
<path d="M127.61 56.5897C127.48 56.2597 127.66 56.0797 127.92 55.9297C128.11 56.2897 127.89 56.4497 127.61 56.5897Z" fill="#525151"/>
<path d="M1.11996 51.8398C1.35995 51.9898 1.42995 52.1598 1.14995 52.3398C0.779954 52.1898 0.769955 52.0298 1.11996 51.8398Z" fill="#C5C4C4"/>
<path d="M4.1401 27.6904C4.5101 28.0704 4.3601 28.3004 3.9201 28.4504C3.9001 28.1704 3.7201 27.8404 4.1401 27.6904Z" fill="#525151"/>
<path d="M29.6299 76.4601C29.7999 76.2601 29.9599 76.2901 30.1199 76.4801C29.9499 76.5801 29.7899 76.5701 29.6299 76.4601Z" fill="#525151"/>
<path d="M99.6001 76.48C99.7501 76.29 99.9101 76.24 100.09 76.45C99.9301 76.56 99.7701 76.57 99.6001 76.48Z" fill="#525151"/>
<path d="M99.9203 53.1104C97.7003 53.2104 95.6403 52.8004 93.8203 51.5504C92.1003 50.3704 91.0202 48.7804 90.8002 46.6704C90.7302 45.9504 90.8403 45.8004 91.5603 45.7004C91.6803 45.6804 91.8103 45.7004 91.9303 45.6904C93.4703 45.6304 93.5002 45.6204 93.9902 47.0904C94.3802 48.2704 95.1803 49.0904 96.2603 49.6104C98.9103 50.8804 101.55 50.8004 104.12 49.3504C104.98 48.8704 105.6 48.1504 106.01 47.2504C107.04 44.9804 105.86 42.7804 103.36 41.8704C101.14 41.0504 98.8303 40.5004 96.6503 39.5904C95.8003 39.2404 95.0103 38.8004 94.2103 38.3504C92.1803 37.2004 91.4103 35.4304 91.4203 33.2004C91.4303 29.7904 93.4403 27.2904 96.7603 26.3704C98.2903 25.9404 99.8003 25.7004 101.39 25.8604C103.52 26.0804 105.24 27.0504 106.85 28.4304C108.05 29.4504 108.4 30.7704 108.78 32.1204C109.03 32.9904 108.86 33.1204 107.96 33.1804C107.92 33.1804 107.88 33.1804 107.84 33.1804C106.01 33.1604 106.18 33.5704 105.56 31.5804C105.35 30.9204 104.92 30.4204 104.39 30.0004C101.96 28.0804 98.3203 28.0104 95.7603 29.8004C94.9403 30.3804 94.5003 31.2304 94.3403 32.2504C94.0403 34.0704 94.6503 35.3504 96.2903 36.2304C97.4303 36.8504 98.6102 37.3204 99.8602 37.6804C101.93 38.2804 103.98 38.9204 105.92 39.9204C110.62 42.3404 109.91 48.9604 106.45 51.3304C104.46 52.6904 102.27 53.2504 99.9203 53.1104Z" fill="#FEFEFE"/>
<path d="M68.3199 46.1301C68.6399 46.2501 68.6799 46.5901 68.7699 46.8401C69.2099 48.0401 70.0999 48.7901 71.1899 49.3601C73.6799 50.6601 76.2099 50.7601 78.7399 49.5701C80.9099 48.5501 81.9599 46.6701 82.3399 44.3901C82.4999 43.4501 82.5599 42.5001 82.5599 41.5401C82.5499 36.8901 82.5599 32.2501 82.5599 27.6001C82.5599 27.2701 82.5599 26.9401 82.5699 26.6101C82.5799 26.3701 82.7199 26.2401 82.9699 26.2401C83.0099 26.2401 83.0499 26.2401 83.0899 26.2401C85.2999 25.9801 85.3499 26.0401 85.3499 28.2701C85.3499 33.0001 85.3599 37.7301 85.3799 42.4501C85.3799 43.7401 85.2499 45.0101 84.9799 46.2701C84.3899 48.9601 82.6999 50.7701 80.3499 52.0601C79.0999 52.7401 77.7499 52.9801 76.3599 53.0801C75.0299 53.1801 73.6999 53.0601 72.3699 52.9801C72.2499 52.6901 72.1099 52.4901 71.8399 52.8601C69.8899 52.3601 68.3099 51.4001 67.0399 49.7601C65.9599 48.3701 65.5099 46.7701 64.9099 45.2001C64.8699 45.0901 64.8599 44.9601 64.8599 44.8401C65.2899 38.9401 64.9299 33.0201 65.0499 27.1201C65.0499 27.0801 65.0499 27.0401 65.0499 27.0001C64.9699 26.3901 65.2399 26.2101 65.8299 26.2401C68.1899 26.3401 67.9399 25.7701 67.9599 28.3301C68.0099 33.6801 68.0199 39.0201 68.0399 44.3701C68.0399 44.8601 67.9699 45.3501 68.1399 45.8201C68.0599 46.0001 68.1099 46.1101 68.3099 46.1401L68.3199 46.1301Z" fill="#FEFEFE"/>
<path d="M27.66 26.2305C28.99 26.2305 30.32 26.2305 31.65 26.2305C33.27 26.2305 34.79 26.6205 36.15 27.4805C38.34 28.8705 39.39 30.9305 39.59 33.5005C39.75 35.6505 39.34 37.6605 38.19 39.4805C37.67 40.3005 36.84 40.8605 36.03 41.4105C34.68 42.3305 33.2001 42.7205 31.5701 42.6805C29.7401 42.6305 27.91 42.6805 26.08 42.6705C25.04 42.6705 25.08 42.6505 25.08 43.7105C25.08 46.3605 25.08 49.0205 25.08 51.6705C25.08 52.6205 25.07 52.6405 24.14 52.6305C22.02 52.6005 22.3201 52.9505 22.3201 50.9105C22.2901 42.9905 22.29 35.0805 22.29 27.1605C22.29 26.2605 22.3 26.2505 23.17 26.2405C24.67 26.2305 26.16 26.2405 27.66 26.2405V26.2305ZM25.09 34.4305C25.09 36.1305 25.09 37.8205 25.09 39.5205C25.09 39.8705 25.09 40.1805 25.58 40.1705C27.57 40.1305 29.57 40.3005 31.56 40.0805C32.95 39.9305 34.32 39.5205 35.29 38.4205C36.86 36.6505 37.09 34.5605 36.41 32.3805C35.75 30.2505 34.11 29.2505 31.98 28.9005C29.91 28.5705 27.83 28.7605 25.76 28.6905C25.17 28.6705 25.08 28.9605 25.09 29.4405C25.11 31.1005 25.09 32.7505 25.09 34.4105V34.4305Z" fill="#FEFEFE"/>
<path d="M47.5802 38.2504C47.5802 41.9004 47.5802 45.5504 47.5802 49.1904C47.5802 50.1704 47.5102 50.1404 48.5202 50.1404C51.9702 50.1404 55.4202 50.1404 58.8802 50.1404C60.0802 50.1404 60.0902 50.0304 60.0702 51.2404C60.0502 52.7904 60.2902 52.6204 58.6702 52.6204C54.5102 52.6204 50.3502 52.6204 46.1902 52.6204C44.7202 52.6204 44.8102 52.8504 44.8002 51.2004C44.7902 43.4504 44.7802 35.7004 44.7802 27.9404C44.7802 25.9804 44.4402 26.2304 46.6002 26.2204C47.5502 26.2204 47.5702 26.2404 47.5702 27.1704C47.5702 30.8604 47.5702 34.5504 47.5702 38.2404L47.5802 38.2504Z" fill="#FEFEFE"/>
<path d="M71.8501 52.8605C72.1201 52.4905 72.2601 52.6905 72.3801 52.9805C72.1501 53.1505 71.9701 53.1405 71.8501 52.8605Z" fill="#C5C4C4"/>
<path d="M68.3201 46.1296C68.1201 46.0896 68.0701 45.9896 68.1501 45.8096C68.2101 45.9196 68.2601 46.0296 68.3201 46.1296Z" fill="#C5C4C4"/>
</svg>
