<svg width="123" height="80" viewBox="0 0 123 80" fill="none" xmlns="http://www.w3.org/2000/svg">
<path d="M60.5798 79.2C50.3598 79.2 40.1398 79.24 29.9198 79.19C20.8598 79.15 13.2798 75.71 7.28982 68.93C3.64982 64.82 1.37982 59.99 0.449818 54.58C0.189818 53.05 0.0398182 51.49 0.0298182 49.94C-0.0101818 43.34 0.0198182 36.74 0.00981819 30.15C-0.000181807 21.55 3.05982 14.24 9.22982 8.26C13.7698 3.86 19.2398 1.23 25.4998 0.31C26.9298 0.1 28.3998 0.02 29.8498 0.02C50.6798 0 71.5198 0.02 92.3598 0C98.5598 0 104.19 1.65 109.38 5.07C115.87 9.35 119.9 15.28 121.86 22.72C122.44 24.94 122.66 27.21 122.67 29.5C122.7 36.28 122.74 43.07 122.67 49.85C122.59 57.71 119.7 64.48 114.28 70.14C109.88 74.73 104.51 77.59 98.2598 78.72C96.4698 79.04 94.6298 79.17 92.8098 79.18C82.0698 79.22 71.3298 79.2 60.5898 79.2H60.5798ZM61.3798 76.2C71.5798 76.2 81.7798 76.23 91.9798 76.17C94.0798 76.16 96.2198 75.95 98.2798 75.54C103.74 74.45 108.45 71.85 112.25 67.78C117.31 62.37 119.72 55.89 119.68 48.48C119.65 42.44 119.7 36.4 119.66 30.37C119.65 28.8 119.53 27.22 119.28 25.67C118.4 20.1 115.99 15.24 112.05 11.22C106.71 5.77 100.11 3.04 92.4898 3.03C71.7298 2.98 50.9798 3.01 30.2198 3.03C29.0398 3.03 27.8498 3.09 26.6798 3.26C18.7298 4.43 12.2798 8.11 7.71982 14.82C4.60982 19.4 3.01982 24.49 2.99982 30.03C2.97982 36.34 3.00982 42.64 2.97982 48.95C2.97982 50.87 3.18982 52.75 3.58982 54.62C6.20982 67.15 16.7298 76.13 30.1998 76.19C40.5898 76.24 50.9798 76.19 61.3598 76.2H61.3798Z" fill="white"/>
<path d="M44.9202 52.31C44.0002 52.31 43.1902 52.3 42.3802 52.31C41.9902 52.31 41.9302 52.09 41.9302 51.8C41.9302 51.03 41.9302 50.27 41.9302 49.5C41.9302 42.03 41.9202 34.57 41.9102 27.1C41.9102 26.73 41.9102 26.36 41.9102 25.95C42.1602 25.93 42.3402 25.9 42.5202 25.9C45.5902 25.9 48.6702 25.83 51.7402 25.92C55.4002 26.02 58.4102 28.09 59.1402 31.87C59.6702 34.61 59.3802 37.24 57.3902 39.38C56.6602 40.16 55.6802 40.7 54.7302 41.42C54.7502 41.46 54.8402 41.66 54.9402 41.85C56.6202 44.94 58.3102 48.03 59.9902 51.13C60.1702 51.46 60.2802 51.83 60.4802 52.3C59.3302 52.3 58.3402 52.32 57.3502 52.28C57.2002 52.28 57.0002 52.08 56.9202 51.92C55.1802 48.72 53.4602 45.5 51.7102 42.3C51.6002 42.1 51.3402 41.86 51.1402 41.86C49.0902 41.83 47.0302 41.84 44.9102 41.84V52.3L44.9202 52.31ZM44.9202 39.35C47.4502 39.22 49.9202 39.21 52.3702 38.92C54.2502 38.7 55.6202 37.54 56.1702 35.68C56.3802 34.96 56.3902 34.17 56.3802 33.41C56.3402 31.1 54.8502 29.31 52.6002 28.77C50.1002 28.18 47.5602 28.46 45.0302 28.43C45.0002 28.43 44.9702 28.48 44.9302 28.51V39.35H44.9202Z" fill="white"/>
<path d="M101.89 52.2797C101.62 52.2897 101.43 52.3097 101.25 52.3097C96.4099 52.3097 91.5699 52.2997 86.7299 52.3297C86.1199 52.3297 86.0099 52.1097 86.0099 51.5697C86.0099 43.5997 85.9999 35.6397 85.9999 27.6697C85.9999 27.0997 85.8599 26.3497 86.1599 26.0197C86.4199 25.7297 87.2099 25.9097 87.7699 25.9097C92.1499 25.9097 96.5399 25.9097 100.92 25.9097C101.16 25.9097 101.41 25.9097 101.69 25.9097V28.3697H88.8399V37.8497H100.72V40.3297H88.8199V49.7997C89.0499 49.7997 89.2799 49.7997 89.5199 49.7997C93.3999 49.7997 97.2899 49.8097 101.17 49.7897C101.77 49.7897 101.93 49.9797 101.89 50.5297C101.85 51.0897 101.89 51.6497 101.89 52.2797Z" fill="white"/>
<path d="M67.5798 40.3604V49.7904H80.5398V52.2804H64.8398V25.9404H80.2498V28.3904H67.5998V37.8604H68.3298C71.8398 37.8604 75.3498 37.8704 78.8598 37.8504C79.4298 37.8504 79.5998 38.0204 79.5398 38.5604C79.4998 38.9304 79.4998 39.3104 79.5398 39.6804C79.5898 40.2204 79.4098 40.3904 78.8498 40.3804C75.3398 40.3504 71.8298 40.3704 68.3198 40.3704C68.0998 40.3704 67.8698 40.3704 67.5898 40.3704L67.5798 40.3604Z" fill="white"/>
<path d="M23.9998 37.8504H35.3698V40.3304H23.9598V52.2704H21.0498V25.9404H36.6098V28.3704H23.9998V37.8504Z" fill="white"/>
</svg>
