<svg width="64" height="64" viewBox="0 0 64 64" fill="none" xmlns="http://www.w3.org/2000/svg" shape-rendering="crispEdges">
  <!-- Outer Bevel -->
  <rect x="4" y="4" width="56" height="56" fill="#2b2b2b"/>
  <path d="M4 4 H60 V6 H6 V60 H4 V4 Z" fill="#555555"/>
  <path d="M60 4 V60 H4 V62 H62 V4 H60 Z" fill="#000000"/>
  
  <!-- Screen Area -->
  <rect x="10" y="10" width="44" height="24" fill="#000000"/>
  <rect x="10" y="10" width="44" height="24" stroke="#1a1a1a" stroke-width="2"/>
  
  <!-- Visualizer / Waveform (Green) -->
  <rect x="14" y="22" width="4" height="8" fill="#00ff00"/>
  <rect x="20" y="18" width="4" height="12" fill="#00ff00"/>
  <rect x="26" y="24" width="4" height="6" fill="#00ff00"/>
  <rect x="32" y="16" width="4" height="14" fill="#00ff00"/>
  <rect x="38" y="20" width="4" height="10" fill="#00ff00"/>
  <rect x="44" y="26" width="4" height="4" fill="#00ff00"/>
  
  <!-- Controls Area -->
  <rect x="10" y="38" width="44" height="16" fill="#333333"/>
  
  <!-- Buttons -->
  <!-- Prev -->
  <rect x="14" y="42" width="8" height="8" fill="#1a1a1a"/>
  <path d="M19 44 L16 46 L19 48 V44 Z" fill="#00ff00"/>
  
  <!-- Play -->
  <rect x="24" y="42" width="16" height="8" fill="#1a1a1a"/>
  <path d="M30 44 L34 46 L30 48 V44 Z" fill="#00ff00"/>
  
  <!-- Next -->
  <rect x="42" y="42" width="8" height="8" fill="#1a1a1a"/>
  <path d="M45 44 L48 46 L45 48 V44 Z" fill="#00ff00"/>

</svg>